# xmcd
#
# Track frame offsets:
#	187
#	16272
#	37775
#	55452
#	75145
#	95652
#	109625
#	125962
#
# Disc length: 1928 seconds
#
# Revision: 0
# Processed by: cddbd v1.5.2PL0 Copyright (c) Steve Scherf et al.
# Submitted via: EasyCDDAExtractor 16.0.6.1
#
DISCID=5a078608
DTITLE=Thomas "Snake" Johnson - House Party
DYEAR=1988
DGENRE=Blues
TTITLE0=House Party
TTITLE1=Good Things Come To Them That Wait
TTITLE2=It's Alright
TTITLE3=It Ain't The River That Drowns, It's The Water
TTITLE4=I Ain't Gonna Hanky Panky
TTITLE5=Missing Love That I Never Had
TTITLE6=Snake
TTITLE7=Pinto Beans ( Instrumental)
EXTD=
EXTT0=
EXTT1=
EXTT2=
EXTT3=
EXTT4=
EXTT5=
EXTT6=
EXTT7=
PLAYORDER=
